<svg xmlns="http://www.w3.org/2000/svg" x="0px" y="0px"
width="40" height="40"
viewBox="0 0 226 226"
style=" fill:#000000;"><g transform="translate(1.469,1.469) scale(0.987,0.987)"><g fill="none" fill-rule="nonzero" stroke="none" stroke-width="none" stroke-linecap="butt" stroke-linejoin="none" stroke-miterlimit="10" stroke-dasharray="" stroke-dashoffset="0" font-family="none" font-weight="none" font-size="none" text-anchor="none" style="mix-blend-mode: normal"><g fill="#ffffff" stroke="#818181" stroke-width="3" stroke-linejoin="round"><path d="M169.67656,82.80781c2.11875,1.94219 2.11875,5.29688 0,7.41563l-52.96875,52.96875c-1.05937,1.05938 -2.47188,1.58906 -3.70781,1.58906c-1.23594,0 -2.64844,-0.52969 -3.70781,-1.58906l-52.96875,-52.96875c-2.11875,-1.94219 -2.11875,-5.29687 0,-7.41563c1.94219,-2.11875 5.29687,-2.11875 7.41562,0l49.26094,49.26094l49.26094,-49.26094c2.11875,-2.11875 5.29688,-2.11875 7.41562,0z"></path></g><path d="M0,226v-226h226v226z" fill="none" stroke="none" stroke-width="1" stroke-linejoin="miter"></path><g fill="#ffffff" stroke="none" stroke-width="1" stroke-linejoin="miter"><path d="M162.26094,82.80781l-49.26094,49.26094l-49.26094,-49.26094c-2.11875,-2.11875 -5.47344,-2.11875 -7.41562,0c-2.11875,2.11875 -2.11875,5.47344 0,7.41563l52.96875,52.96875c1.05938,1.05937 2.47187,1.58906 3.70781,1.58906c1.23594,0 2.64844,-0.52969 3.70781,-1.58906l52.96875,-52.96875c2.11875,-2.11875 2.11875,-5.47344 0,-7.41563c-2.11875,-2.11875 -5.29687,-2.11875 -7.41562,0z"></path></g><path d="" fill="none" stroke="none" stroke-width="1" stroke-linejoin="miter"></path><path d="" fill="none" stroke="none" stroke-width="1" stroke-linejoin="miter"></path></g></g></svg>