<svg xmlns="http://www.w3.org/2000/svg" x="0px" y="0px"
width="40" height="40"
viewBox="0 0 172 172"
style="transform: rotate(-90deg); fill:#000000;"><g fill="none" fill-rule="nonzero" stroke="none" stroke-width="1" stroke-linecap="butt" stroke-linejoin="miter" stroke-miterlimit="10" stroke-dasharray="" stroke-dashoffset="0" font-family="none" font-weight="none" font-size="none" text-anchor="none" style="mix-blend-mode: normal"><path d="M0,172v-172h172v172z" fill="none"></path><g><path d="M151.36,60.2l-13.76,-13.76l-51.6,51.6l-51.6,-51.6l-13.76,13.76l65.36,65.36z" fill="#af282f"></path><path d="M86,127.28c-0.44032,0 -0.88064,-0.16856 -1.21604,-0.50396l-65.36,-65.36c-0.67252,-0.67252 -0.67252,-1.75956 0,-2.43208l13.76,-13.76c0.67252,-0.67252 1.75956,-0.67252 2.43208,0l50.38396,50.38396l50.38396,-50.38396c0.67252,-0.67252 1.75956,-0.67252 2.43208,0l13.76,13.76c0.67252,0.67252 0.67252,1.75956 0,2.43208l-65.36,65.36c-0.3354,0.3354 -0.77572,0.50396 -1.21604,0.50396zM23.07208,60.2l62.92792,62.92792l62.92792,-62.92792l-11.32792,-11.32792l-50.38396,50.38396c-0.67252,0.67252 -1.75956,0.67252 -2.43208,0l-50.38396,-50.38396z" fill="#ecf0f1"></path><path d="M86,116.96c-0.22016,0 -0.44032,-0.08428 -0.60888,-0.25112l-2.58,-2.58c-0.3354,-0.3354 -0.3354,-0.88064 0,-1.21604c0.3354,-0.3354 0.88064,-0.3354 1.21604,0l2.58,2.58c0.3354,0.3354 0.3354,0.88064 0,1.21604c-0.16684,0.16684 -0.387,0.25112 -0.60716,0.25112zM79.12,110.08c-0.22016,0 -0.44032,-0.08428 -0.60888,-0.25112l-6.02,-6.02c-0.3354,-0.3354 -0.3354,-0.88064 0,-1.21604c0.3354,-0.3354 0.88064,-0.3354 1.21604,0l6.02,6.02c0.3354,0.3354 0.3354,0.88064 0,1.21604c-0.16684,0.16684 -0.387,0.25112 -0.60716,0.25112zM95.46,107.5c-0.22016,0 -0.44032,-0.08428 -0.60888,-0.25112c-0.3354,-0.3354 -0.3354,-0.88064 0,-1.21604l41.28,-41.28c0.3354,-0.3354 0.88064,-0.3354 1.21604,0c0.3354,0.3354 0.3354,0.88064 0,1.21604l-41.28,41.28c-0.16684,0.16684 -0.387,0.25112 -0.60716,0.25112zM63.64,94.6c-0.22016,0 -0.44032,-0.08428 -0.60888,-0.25112l-28.38,-28.38c-0.3354,-0.3354 -0.3354,-0.88064 0,-1.21604c0.3354,-0.3354 0.88064,-0.3354 1.21604,0l28.38,28.38c0.3354,0.3354 0.3354,0.88064 0,1.21604c-0.16684,0.16684 -0.387,0.25112 -0.60716,0.25112z" fill="#ecf0f1"></path></g></g></svg>