<svg xmlns="http://www.w3.org/2000/svg" x="0px" y="0px"
width="40" height="40"
viewBox="0 0 226 226"
style=" fill:#000000;"><g fill="none" fill-rule="nonzero" stroke="none" stroke-width="1" stroke-linecap="butt" stroke-linejoin="miter" stroke-miterlimit="10" stroke-dasharray="" stroke-dashoffset="0" font-family="none" font-weight="none" font-size="none" text-anchor="none" style="mix-blend-mode: normal"><path d="M0,226v-226h226v226z" fill="none"></path><g fill="#ecf0f1"><path d="M60.10482,45.05286c-6.12829,0.00759 -11.64153,3.72594 -13.94479,9.40494c-2.30326,5.679 -0.93767,12.18723 3.45403,16.46146l42.08073,42.08073l-42.08073,42.08073c-3.93597,3.77898 -5.52147,9.39054 -4.14502,14.6705c1.37645,5.27996 5.49976,9.40327 10.77972,10.77972c5.27996,1.37645 10.89152,-0.20905 14.6705,-4.14502l42.08073,-42.08073l42.08073,42.08073c3.77897,3.93603 9.39056,5.52157 14.67055,4.14512c5.27999,-1.37644 9.40333,-5.49978 10.77977,-10.77977c1.37644,-5.27999 -0.2091,-10.89158 -4.14512,-14.67055l-42.08073,-42.08073l42.08073,-42.08073c4.45612,-4.33154 5.79598,-10.95446 3.37395,-16.67749c-2.42203,-5.72303 -8.10908,-9.37211 -14.32082,-9.18892c-3.9143,0.11663 -7.62943,1.75256 -10.35833,4.5612l-42.08073,42.08073l-42.08073,-42.08073c-2.84018,-2.91956 -6.74132,-4.56494 -10.81445,-4.5612z"></path></g></g></svg>