<svg xmlns="http://www.w3.org/2000/svg" x="0px" y="0px"
width="30" height="30"
viewBox="0 0 226 226"
style=" fill:#000000;"><g fill="none" fill-rule="nonzero" stroke="none" stroke-width="1" stroke-linecap="butt" stroke-linejoin="miter" stroke-miterlimit="10" stroke-dasharray="" stroke-dashoffset="0" font-family="none" font-weight="none" font-size="none" text-anchor="none" style="mix-blend-mode: normal"><path d="M0,226v-226h226v226z" fill="none"></path><g fill="#ffffff"><path d="M99.93368,38.13681c-39.72656,0 -72.03543,32.66613 -72.03543,72.74582c0,40.25625 32.30887,72.74237 72.03543,72.74237c18.18594,0 34.7835,-6.88731 47.496,-18.18732l4.06232,4.06232l-3.71057,3.883c-2.11875,2.11875 -2.11875,5.47482 0,7.59357l31.78125,32.133c1.05937,1.05937 2.29807,1.58975 3.71057,1.58975c1.4125,0 2.82431,-0.53038 3.70712,-1.58975l14.125,-14.30087c1.94219,-2.11875 1.94288,-5.47206 -0.17587,-7.41425l-31.78125,-32.13644c-1.05937,-1.05937 -2.29807,-1.5863 -3.71057,-1.5863c-1.4125,0 -2.82431,0.52693 -3.70712,1.5863l-3.70712,3.88644l-4.06232,-4.23819c11.12344,-12.88906 18.01144,-29.66112 18.01144,-48.02362c0,-40.07969 -32.31232,-72.74582 -72.03888,-72.74582zM99.93368,48.90643c33.9,0 61.44513,27.89894 61.44513,62.15207c0,34.25313 -27.54513,61.97275 -61.44513,61.97275c-33.9,0 -61.44168,-27.71962 -61.44168,-61.97275c0,-34.25312 27.54168,-62.15207 61.44168,-62.15207zM100.10956,70.97675c-16.77344,0 -31.77987,10.77307 -37.42987,26.6637c-0.88281,2.29531 0.35243,5.11824 2.82431,5.82449c0.52969,0.17656 1.06007,0.35519 1.58975,0.35519c1.94219,0 3.70781,-1.23732 4.41406,-3.1795c4.2375,-12.18281 15.88925,-20.48056 28.60175,-20.48056c2.47187,0 4.59338,-2.11806 4.59338,-4.58994c0,-2.47187 -2.12151,-4.59338 -4.59338,-4.59338zM66.56268,114.58975c-2.47187,0 -4.58994,1.9415 -4.58994,4.58993v0.70694c0.17656,2.47188 2.12082,4.58993 4.76926,4.58993c2.47187,0 4.58994,-2.11806 4.58994,-4.58993v-0.53107c0,-2.64844 -1.9415,-4.76581 -4.58994,-4.76581zM165.617,170.55868l24.36356,24.71875l-6.70731,6.71075l-24.367,-24.71875z"></path></g></g></svg>