<svg xmlns="http://www.w3.org/2000/svg" x="0px" y="0px"
width="20" height="20"
viewBox="0 0 172 172"
style=" fill:#000000;"><g fill="none" fill-rule="nonzero" stroke="none" stroke-width="1" stroke-linecap="butt" stroke-linejoin="miter" stroke-miterlimit="10" stroke-dasharray="" stroke-dashoffset="0" font-family="none" font-weight="none" font-size="none" text-anchor="none" style="mix-blend-mode: normal"><path d="M0,172v-172h172v172z" fill="none"></path><g fill="#ffffff"><path d="M86,164.83333c3.956,0 7.16667,-3.21067 7.16667,-7.16667v-126.63858l23.73242,22.54275c1.38675,1.31508 3.1605,1.97083 4.93425,1.97083c1.89558,0 3.78758,-0.74892 5.19942,-2.22883c2.72692,-2.87025 2.60867,-7.40675 -0.26158,-10.13367l-35.83333,-34.04167c-2.76275,-2.623 -7.10575,-2.623 -9.87208,0l-35.83333,34.04167c-2.87025,2.72692 -2.98492,7.26342 -0.26158,10.13367c2.72692,2.86308 7.26342,2.98133 10.13367,0.258l23.72883,-22.54275v126.63858c0,3.956 3.21067,7.16667 7.16667,7.16667z"></path></g></g></svg>